<svg xmlns="http://www.w3.org/2000/svg" x="0px" y="0px" viewBox="0 0 512 512" style="enable-background:new 0 0 512 512;" xml:space="preserve" width="512" height="512">
<g>
	<g>
		<path d="M256,512c-3.838,0-7.676-1.465-10.605-4.395l-90-90c-4.292-4.292-5.581-10.737-3.252-16.348    c2.314-5.61,7.793-9.258,13.857-9.258h45v-91h-91v45c0,6.064-3.647,11.543-9.258,13.857c-5.596,2.358-12.056,1.055-16.348-3.252    l-90-90c-5.859-5.859-5.859-15.352,0-21.211l90-90c4.292-4.307,10.737-5.596,16.348-3.252c5.61,2.314,9.258,7.793,9.258,13.857v45    h91v-91h-45c-6.064,0-11.543-3.647-13.857-9.258c-2.329-5.61-1.04-12.056,3.252-16.348l90-90c5.859-5.859,15.352-5.859,21.211,0    l90,90c4.292,4.292,5.581,10.737,3.252,16.348C357.543,116.353,352.064,120,346,120h-45v91h91v-45    c0-6.064,3.647-11.543,9.258-13.857c5.654-2.329,12.07-1.025,16.348,3.252l90,90c5.859,5.859,5.859,15.352,0,21.211l-90,90    c-4.277,4.277-10.723,5.596-16.348,3.252C395.647,357.543,392,352.064,392,346v-45h-91v91h45c6.064,0,11.543,3.647,13.857,9.258    c2.329,5.61,1.04,12.056-3.252,16.348l-90,90C263.676,510.535,259.838,512,256,512z"/>
	</g>
</g>
</svg>
