<svg width="128" height="128" viewBox="0 0 128 128" fill="none" xmlns="http://www.w3.org/2000/svg">
<g clip-path="url(#clip0)">
<path d="M99.95 37.47C102.09 38.94 104.34 41.5 103.14 43.8C102.06 45.88 99.12 45.83 96.8 45.5C82.37 43.39 67.94 41.28 53.51 39.18C51.78 38.93 47.74 37.91 48.21 35.4C48.56 33.52 53.11 32.39 54.65 31.84C59.55 30.08 64.72 29.13 69.92 28.95C80.49 28.58 91.22 31.45 99.95 37.47Z" fill="url(#paint0_linear)"/>
<path d="M70.31 34.52C72.66 35.61 75.31 37.76 74.52 40.23C73.8 42.46 70.9 42.91 68.55 42.96C53.97 43.3 39.39 43.63 24.81 43.97C23.06 44.01 18.91 43.69 18.95 41.13C18.98 39.22 23.27 37.35 24.71 36.54C29.24 33.99 34.19 32.18 39.28 31.14C49.64 29.01 60.69 30.05 70.31 34.52Z" fill="url(#paint1_linear)"/>
<path d="M8.64001 51.12C0.260011 66.7 -1.73999 119.53 58.35 123.93C118.44 128.33 127.52 80.26 123.42 61.5C119.32 42.74 100.85 28.09 69.49 36C69.49 36 23.29 23.86 8.64001 51.12Z" fill="url(#paint2_radial)"/>
<g opacity="0.2">
<path opacity="0.2" d="M71.68 31.91C79.53 31.91 87.22 33.79 93.94 37.34C94.2 37.48 94.48 37.58 94.76 37.63C108.08 40.24 117.7 49.41 120.49 62.14C122.42 70.96 121.24 89.11 110.09 102.96C100.34 115.07 85.47 121.21 65.89 121.21C63.53 121.21 61.07 121.12 58.58 120.94C36.58 119.33 21.33 111.06 13.26 96.35C4.46001 80.34 6.89001 60.75 11.3 52.55C13.64 48.21 17.05 44.68 21.44 42.08C21.63 41.97 21.81 41.83 21.97 41.68C22.72 40.97 24.31 40.15 25.26 39.65C25.63 39.46 25.95 39.29 26.2 39.15C30.41 36.78 35.02 35.07 39.9 34.07C43.11 33.41 46.4 33.08 49.69 33.08C52.33 33.08 54.97 33.3 57.55 33.72C57.71 33.75 57.88 33.76 58.04 33.76C58.31 33.76 58.58 33.72 58.84 33.65C62.47 32.64 66.24 32.06 70.04 31.93C70.58 31.92 71.13 31.91 71.68 31.91ZM71.68 28.91C71.1 28.91 70.51 28.92 69.93 28.94C65.91 29.08 61.9 29.68 58.02 30.76C55.26 30.3 52.47 30.08 49.67 30.08C46.18 30.08 42.69 30.43 39.28 31.13C34.19 32.17 29.24 33.98 24.71 36.53C23.69 37.1 21.25 38.21 19.89 39.49C15.35 42.18 11.42 45.94 8.63001 51.12C0.260007 66.7 -1.73999 119.53 58.35 123.93C60.95 124.12 63.47 124.21 65.88 124.21C119.2 124.21 127.34 79.44 123.42 61.5C120.62 48.68 111.1 37.78 95.34 34.69C88.09 30.85 79.87 28.91 71.68 28.91Z" fill="#424242"/>
</g>
<path d="M47.23 13.26C48.86 18.97 50.66 22.81 54.5 27.51C55.89 29.2 57.57 30.74 59.63 31.65C61.69 32.56 64.18 32.78 66.26 31.9C69.61 30.48 71 26.82 72.05 23.54C73.16 25.35 73 27.56 73.18 29.63C73.37 31.7 74.19 34.04 76.27 34.8C78.63 35.67 81.14 34.04 83.06 32.48C86.06 30.02 87.26 27.23 89.83 24.09C89.2 27.77 89.06 31.96 85.98 34.34C84.57 35.43 82.79 36.62 82.88 38.32C85.49 39.36 88.46 39.01 91.28 38.75C97.05 38.22 103.59 38.39 107.66 42.25C99.92 38.99 90.46 39.54 83.22 43.67C81.86 44.44 80.42 45.96 81.28 47.21C81.52 47.57 81.92 47.81 82.3 48.02C85.98 50.06 90.56 50.63 94.69 49.56C88.16 52.57 83.14 53.63 76.14 51.75C71.01 50.37 67.32 48.87 62 49.32C56.98 49.75 48.39 51.36 43.39 50.8C40.12 50.43 37.26 48.47 34.01 47.98C39.55 48.2 39.97 49.49 42.28 49.07C44.59 48.65 46.77 47.62 48.85 46.59C51.03 45.51 50.1 45.13 50.59 42.87C44.79 44.66 39.79 41.61 35.65 37.42C31.51 33.23 29.59 29.72 29.27 24.02C31.3 27.92 33.71 29.47 37.1 32.43C39.38 34.42 42.18 35.99 45.23 36.7C49.89 37.78 49.82 36.16 48.84 32.52C46.96 25.6 46.36 20.36 47.23 13.26Z" fill="url(#paint3_linear)"/>
<g opacity="0.2">
<path opacity="0.2" d="M50.71 27.52C51.17 28.14 51.66 28.77 52.18 29.41C54.1 31.76 56.14 33.39 58.42 34.39C60 35.09 61.72 35.45 63.39 35.45C64.83 35.45 66.19 35.18 67.43 34.66C68.72 34.11 69.79 33.34 70.68 32.44C71.46 34.98 73.05 36.82 75.23 37.62C76 37.9 76.81 38.05 77.65 38.05C78.43 38.05 79.18 37.93 79.9 37.72C79.88 37.97 79.87 38.23 79.89 38.51C79.95 39.65 80.66 40.65 81.71 41.1C80.79 41.63 78.68 43.07 78.14 45.39C77.85 46.63 78.09 47.88 78.8 48.92C78.91 49.09 79.03 49.24 79.16 49.38C78.44 49.25 77.69 49.08 76.93 48.88C76.02 48.63 75.15 48.39 74.32 48.14C70.96 47.17 67.79 46.26 63.91 46.26C63.2 46.26 62.48 46.29 61.75 46.35C60.19 46.48 58.33 46.72 56.36 46.97C55.14 47.13 53.86 47.29 52.58 47.44C53.18 46.6 53.37 45.67 53.41 44.6C53.42 44.25 53.43 43.94 53.52 43.52C53.74 42.48 53.4 41.4 52.61 40.68C52.05 40.17 51.32 39.89 50.58 39.89C50.28 39.89 49.99 39.93 49.7 40.02C48.86 40.28 48.02 40.41 47.19 40.41C45.64 40.41 44.05 39.95 42.41 39.03C43.11 39.28 43.83 39.49 44.54 39.65C45.72 39.92 46.7 40.06 47.52 40.06C49.67 40.06 50.84 39.12 51.44 38.34C52.95 36.37 52.26 33.82 51.71 31.77C51.32 30.25 50.98 28.85 50.71 27.52ZM47.23 13.26C46.36 20.37 46.95 25.6 48.82 32.54C49.6 35.44 49.81 37.05 47.52 37.05C46.93 37.05 46.17 36.94 45.21 36.72C42.16 36.01 39.36 34.44 37.08 32.45C33.69 29.49 31.28 27.94 29.25 24.04C29.57 29.73 31.49 33.25 35.63 37.44C38.94 40.79 42.8 43.41 47.18 43.41C48.28 43.41 49.41 43.25 50.57 42.89C50.09 45.15 51.01 45.53 48.83 46.61C46.75 47.64 44.57 48.67 42.26 49.09C41.94 49.15 41.66 49.17 41.39 49.17C39.74 49.17 38.76 48.19 33.99 47.99C37.24 48.48 40.1 50.45 43.37 50.81C44.1 50.89 44.9 50.93 45.76 50.93C50.8 50.93 57.7 49.7 61.99 49.33C62.65 49.27 63.28 49.25 63.89 49.25C68.24 49.25 71.63 50.55 76.13 51.76C78.5 52.4 80.65 52.7 82.71 52.7C86.71 52.7 90.37 51.56 94.68 49.57C93.31 49.92 91.89 50.1 90.47 50.1C87.61 50.1 84.75 49.39 82.29 48.03C81.9 47.81 81.51 47.57 81.27 47.22C80.42 45.97 81.86 44.45 83.21 43.68C87.32 41.34 92.13 40.15 96.94 40.15C100.62 40.15 104.3 40.85 107.66 42.26C104.6 39.36 100.15 38.54 95.67 38.54C94.19 38.54 92.71 38.63 91.28 38.76C89.91 38.89 88.51 39.03 87.14 39.03C85.67 39.03 84.23 38.86 82.88 38.32C82.78 36.61 84.56 35.42 85.98 34.34C89.06 31.96 89.2 27.77 89.83 24.09C87.26 27.23 86.06 30.02 83.06 32.48C81.52 33.74 79.59 35.04 77.66 35.04C77.2 35.04 76.74 34.97 76.28 34.8C74.2 34.04 73.38 31.7 73.19 29.63C73 27.56 73.16 25.34 72.06 23.54C71.01 26.82 69.62 30.48 66.27 31.9C65.37 32.28 64.38 32.46 63.39 32.46C62.1 32.46 60.8 32.17 59.63 31.65C57.57 30.74 55.88 29.2 54.5 27.51C50.66 22.81 48.87 18.96 47.23 13.26Z" fill="#424242"/>
</g>
<path d="M65.3 4.82C68.02 4.5 69.18 4.77 71.9 4.91C73.94 5.01 76.39 5.53 76.85 7.19C77.08 8.01 76.71 8.88 76.35 9.68C71.83 19.69 70.21 29.93 69.29 41.26C67.6 41.37 62.53 40.84 62.53 40.84C62.53 40.84 62.26 29.48 63.08 25.58C63.41 23.91 66.7 4.66 65.3 4.82Z" fill="url(#paint4_linear)"/>
<g opacity="0.2">
<path opacity="0.2" d="M68.61 7.7C68.98 7.72 69.37 7.75 69.82 7.78C70.4 7.82 71.02 7.87 71.76 7.9C72.68 7.95 73.33 8.08 73.72 8.2C73.68 8.3 73.64 8.38 73.61 8.44C69.06 18.52 67.43 28.63 66.54 38.18C66.19 38.16 65.83 38.13 65.48 38.1C65.45 34.23 65.53 28.48 66 26.19C66.2 25.23 67.05 20.31 67.73 15.52C68.24 11.92 68.51 9.44 68.61 7.7ZM67.68 4.67C66.99 4.67 66.24 4.71 65.3 4.82C65.31 4.82 65.31 4.82 65.32 4.82C66.68 4.82 63.41 23.92 63.07 25.58C62.26 29.48 62.52 40.84 62.52 40.84C62.52 40.84 66.67 41.28 68.72 41.28C68.93 41.28 69.13 41.28 69.29 41.26C70.21 29.93 71.83 19.68 76.35 9.68C76.71 8.87 77.08 8.01 76.85 7.19C76.39 5.54 73.95 5.01 71.9 4.91C70.12 4.82 69 4.67 67.68 4.67Z" fill="#424242"/>
</g>
<path d="M87.5 79C87.5 91.4066 76.999 101.5 64 101.5C51.001 101.5 40.5 91.4066 40.5 79C40.5 66.5934 51.001 56.5 64 56.5C76.999 56.5 87.5 66.5934 87.5 79Z" fill="url(#paint5_angular)" stroke="#C81515"/>
<rect x="50.8284" y="91" width="1" height="4" transform="rotate(45 50.8284 91)" fill="#FCFCFC"/>
<rect x="79.5355" y="63" width="1" height="4" transform="rotate(45 79.5355 63)" fill="#FCFCFC"/>
<rect x="82" y="80" width="2" height="5" transform="rotate(-90 82 80)" fill="#FCFCFC"/>
<rect x="48" y="63.7071" width="1" height="4" transform="rotate(-45 48 63.7071)" fill="#FCFCFC"/>
<rect x="48" y="63.7071" width="1" height="4" transform="rotate(-45 48 63.7071)" fill="#FCFCFC"/>
<rect x="77" y="91.7071" width="1" height="4" transform="rotate(-45 77 91.7071)" fill="#FCFCFC"/>
<rect x="63" y="57" width="2" height="5" fill="#FCFCFC"/>
<rect x="63" y="96" width="2" height="5" fill="#FCFCFC"/>
<rect x="41" y="80" width="2" height="5" transform="rotate(-90 41 80)" fill="#FCFCFC"/>
<g filter="url(#filter0_d)">
<line x1="64.2705" y1="79.3161" x2="79.2705" y2="63.3161" stroke="#461010" stroke-width="2"/>
</g>
</g>
<defs>
<filter id="filter0_d" x="62.0409" y="62.1321" width="19.4591" height="20.3679" filterUnits="userSpaceOnUse" color-interpolation-filters="sRGB">
<feFlood flood-opacity="0" result="BackgroundImageFix"/>
<feColorMatrix in="SourceAlpha" type="matrix" values="0 0 0 0 0 0 0 0 0 0 0 0 0 0 0 0 0 0 127 0"/>
<feOffset dy="1"/>
<feGaussianBlur stdDeviation="0.75"/>
<feColorMatrix type="matrix" values="0 0 0 0 0 0 0 0 0 0 0 0 0 0 0 0 0 0 0.25 0"/>
<feBlend mode="normal" in2="BackgroundImageFix" result="effect1_dropShadow"/>
<feBlend mode="normal" in="SourceGraphic" in2="effect1_dropShadow" result="shape"/>
</filter>
<linearGradient id="paint0_linear" x1="76.9782" y1="27.7549" x2="74.9253" y2="48.0367" gradientUnits="userSpaceOnUse">
<stop offset="0.1953" stop-color="#B80000"/>
<stop offset="0.3093" stop-color="#BF1212"/>
<stop offset="0.5394" stop-color="#D34242"/>
<stop offset="0.8616" stop-color="#F28F8F"/>
<stop offset="0.992" stop-color="#FFB0B0"/>
</linearGradient>
<linearGradient id="paint1_linear" x1="46.0277" y1="28.6563" x2="47.3956" y2="48.9952" gradientUnits="userSpaceOnUse">
<stop offset="0.1953" stop-color="#B50000"/>
<stop offset="0.3093" stop-color="#BD1212"/>
<stop offset="0.5394" stop-color="#D14242"/>
<stop offset="0.8616" stop-color="#F18F8F"/>
<stop offset="0.992" stop-color="#FFB0B0"/>
</linearGradient>
<radialGradient id="paint2_radial" cx="0" cy="0" r="1" gradientUnits="userSpaceOnUse" gradientTransform="translate(40.2628 69.4281) scale(75.1792)">
<stop offset="0.0557" stop-color="#FF8787"/>
<stop offset="0.3986" stop-color="#EA4242"/>
<stop offset="0.6701" stop-color="#DB1212"/>
<stop offset="0.8047" stop-color="#D50000"/>
</radialGradient>
<linearGradient id="paint3_linear" x1="67.1994" y1="19.3474" x2="69.4817" y2="44.4524" gradientUnits="userSpaceOnUse">
<stop offset="0.0039685" stop-color="#AED581"/>
<stop offset="0.4185" stop-color="#87B652"/>
<stop offset="0.787" stop-color="#699F2E"/>
<stop offset="0.9841" stop-color="#5E9621"/>
</linearGradient>
<linearGradient id="paint4_linear" x1="71.2496" y1="39.2558" x2="67.7088" y2="4.44585" gradientUnits="userSpaceOnUse">
<stop offset="0.0159" stop-color="#3C8721"/>
<stop offset="0.996" stop-color="#AED581"/>
</linearGradient>
<radialGradient id="paint5_angular" cx="0" cy="0" r="1" gradientUnits="userSpaceOnUse" gradientTransform="translate(64 79) rotate(-90) scale(16.5 17.2174)">
<stop stop-color="white" stop-opacity="0.68"/>
<stop offset="1" stop-color="white" stop-opacity="0"/>
</radialGradient>
<clipPath id="clip0">
<rect width="128" height="128" fill="white"/>
</clipPath>
</defs>
</svg>
